<svg width="37" height="25" viewBox="0 0 37 25" fill="none" xmlns="http://www.w3.org/2000/svg">
<path d="M34.0217 0H2.97107C1.33261 0 0 1.35505 0 3.0211V14.9056C0 16.5716 1.33261 17.9266 2.97107 17.9266H34.0289C35.6674 17.9266 37 16.5716 37 14.9056V3.0211C36.9927 1.35505 35.6601 0 34.0217 0ZM35.8057 13.8023C35.8057 15.261 34.6843 16.4457 33.2934 16.4457H3.70655C2.32297 16.4457 1.19425 15.261 1.19425 13.8023V4.12439C1.19425 2.66567 2.31569 1.48093 3.70655 1.48093H33.3007C34.6843 1.48093 35.813 2.66567 35.813 4.12439V13.8023H35.8057Z" fill="#283593"/>
<path d="M31.99 12.3435H5.00284C4.43484 12.3435 3.97607 12.6989 3.97607 13.1358C3.97607 13.5727 4.43484 13.9281 5.00284 13.9281H31.9973C32.5653 13.9281 33.0241 13.5727 33.0241 13.1358C33.0241 12.6915 32.558 12.3435 31.99 12.3435Z" fill="#283593"/>
<path d="M32.0845 4.117C31.6185 4.117 31.2471 4.49464 31.2471 4.96854V5.24991C31.2471 5.72381 31.6185 6.10145 32.0845 6.10145C32.5506 6.10145 32.9219 5.72381 32.9219 5.24991V4.96854C32.9219 4.50205 32.5506 4.117 32.0845 4.117Z" fill="#283593"/>
<path d="M32.0848 8.12292C31.6478 8.12292 31.291 8.48575 31.291 8.93003V9.1966C31.291 9.64088 31.6478 10.0037 32.0848 10.0037C32.5217 10.0037 32.8785 9.64088 32.8785 9.1966V8.93003C32.8785 8.49316 32.5217 8.12292 32.0848 8.12292Z" fill="#283593"/>
<path d="M7.62463 19.9629C7.2314 19.8667 6.84546 20.1036 6.74351 20.5035L6.20464 22.6878C6.10997 23.0877 6.343 23.4875 6.73623 23.5838C7.18043 23.6875 7.52997 23.3765 7.61735 23.0433L8.15622 20.8589C8.25089 20.4664 8.01786 20.0666 7.62463 19.9629Z" fill="#283593"/>
<path d="M14.9284 21.2144C14.5206 21.1773 14.1638 21.4883 14.1347 21.903L13.9526 24.191C13.9235 24.6057 14.2221 24.9759 14.6299 24.9981C15.0522 25.0277 15.3945 24.7093 15.4236 24.3095L15.6057 22.0215C15.6421 21.6142 15.3362 21.2514 14.9284 21.2144Z" fill="#283593"/>
<path d="M30.7885 22.6878L30.2497 20.5035C30.155 20.1036 29.7545 19.8741 29.3686 19.9629C28.9753 20.0592 28.7423 20.4664 28.837 20.8589L29.3758 23.0433C29.4559 23.3765 29.8128 23.6875 30.257 23.5838C30.6502 23.4875 30.8832 23.0803 30.7885 22.6878Z" fill="#283593"/>
<path d="M23.2658 24.1836L23.0838 21.8955C23.0474 21.4883 22.6978 21.1699 22.29 21.2069C21.8822 21.2365 21.5764 21.5994 21.6128 22.014L21.7949 24.3021C21.824 24.6945 22.1735 25.0129 22.5886 24.9907C22.9964 24.9685 23.295 24.5982 23.2658 24.1836Z" fill="#283593"/>
</svg>
