<svg width="19" height="33" viewBox="0 0 19 33" fill="none" xmlns="http://www.w3.org/2000/svg">
<path d="M17.1001 0H1.90006C0.852338 0 0 0.8676 0 1.93384V31.0664C0 32.1327 0.852338 33 1.90006 33H17.1001C18.1477 33 19 32.1327 19 31.0664V1.93384C18.9999 0.8676 18.1477 0 17.1001 0ZM17.7333 31.0664C17.7333 31.4218 17.4493 31.7109 17.1001 31.7109H1.90006C1.55078 31.7109 1.26666 31.4218 1.26666 31.0664V1.93384C1.26666 1.57832 1.55078 1.28906 1.90006 1.28906H17.1001C17.4494 1.28906 17.7333 1.57832 17.7333 1.93384V31.0664Z" fill="#283593"/>
<path d="M14.5664 2.57837H4.43313C3.38548 2.57837 2.5332 3.44571 2.5332 4.51183V7.09007C2.5332 8.15631 3.38548 9.02366 4.43313 9.02366H14.5665C15.6141 9.02366 16.4664 8.15631 16.4664 7.09007V4.51183C16.4663 3.44571 15.614 2.57837 14.5664 2.57837ZM15.1997 7.09007C15.1996 7.44546 14.9157 7.7346 14.5664 7.7346H4.43313C4.08391 7.7346 3.79987 7.44546 3.79987 7.09007V4.51183C3.79987 4.15643 4.08391 3.86743 4.43313 3.86743H14.5665C14.9157 3.86743 15.1997 4.15643 15.1997 4.51183V7.09007Z" fill="#283593"/>
<path d="M9.282 29.1332H9.25198C8.90219 29.1332 8.61865 29.4217 8.61865 29.7777C8.61865 30.1336 8.90219 30.4222 9.25198 30.4222H9.282C9.63173 30.4222 9.91533 30.1336 9.91533 29.7777C9.91539 29.4217 9.63173 29.1332 9.282 29.1332Z" fill="#283593"/>
<path d="M7.40998 29.1332H3.16653C2.81675 29.1332 2.5332 29.4217 2.5332 29.7777C2.5332 30.1336 2.81675 30.4222 3.16653 30.4222H7.40998C7.75977 30.4222 8.04331 30.1336 8.04331 29.7777C8.04331 29.4217 7.75977 29.1332 7.40998 29.1332Z" fill="#283593"/>
<path d="M13.3398 5.15662H7.53226C7.18247 5.15662 6.89893 5.44517 6.89893 5.80114C6.89893 6.15699 7.18247 6.44567 7.53226 6.44567H13.3398C13.6895 6.44567 13.9731 6.15699 13.9731 5.80114C13.9731 5.44511 13.6895 5.15662 13.3398 5.15662Z" fill="#283593"/>
<path d="M5.68978 5.15662H5.6597C5.30991 5.15662 5.02637 5.44517 5.02637 5.80114C5.02637 6.15699 5.30991 6.44567 5.6597 6.44567H5.68978C6.03957 6.44567 6.32311 6.15699 6.32311 5.80114C6.32311 5.44511 6.03957 5.15662 5.68978 5.15662Z" fill="#283593"/>
<path d="M12.8998 15.9674L11.9377 14.2713C11.9255 14.2471 11.9129 14.2236 11.9002 14.2014L10.9092 12.4546C10.7683 12.1999 10.5619 11.9874 10.3116 11.8397C10.0657 11.6948 9.78585 11.6181 9.50269 11.6181C8.92756 11.6181 8.39132 11.9324 8.10303 12.4392L7.10338 14.2014C7.09508 14.216 7.08742 14.2308 7.08039 14.2459L6.1644 15.8604C5.98105 16.1342 5.88428 16.4538 5.88428 16.7869C5.88428 17.6949 6.6102 18.4337 7.50257 18.4337H11.501C11.5326 18.4337 11.5635 18.4313 11.5937 18.4268C11.8433 18.4121 12.0875 18.3382 12.3051 18.211C12.6788 17.9925 12.9467 17.6389 13.0591 17.2153C13.1715 16.7917 13.1153 16.349 12.8998 15.9674ZM11.8365 16.8791C11.8122 16.9703 11.7547 17.0463 11.6742 17.0932C11.6206 17.1246 11.5623 17.1406 11.5012 17.1406C11.4765 17.1406 11.4522 17.142 11.4283 17.1447H7.50269C7.30883 17.1447 7.15107 16.9843 7.15107 16.787C7.15107 16.6922 7.18628 16.622 7.21573 16.5799C7.22738 16.5632 7.23821 16.546 7.24828 16.5282L8.19986 14.851C8.20911 14.8349 8.21766 14.8185 8.22539 14.802L9.1997 13.0845C9.26291 12.9735 9.37621 12.9072 9.50282 12.9072C9.56431 12.9072 9.62296 12.9235 9.67667 12.9549C9.73196 12.9877 9.77559 13.0325 9.80606 13.0879C9.80751 13.0906 9.80903 13.0932 9.81049 13.0957L10.8044 14.8478C10.808 14.8542 10.8113 14.8605 10.8145 14.867C10.8201 14.8784 10.8262 14.8898 10.8324 14.9009L11.8023 16.6107C11.8484 16.6927 11.8606 16.788 11.8365 16.8791Z" fill="#283593"/>
<path d="M12.3052 19.9455C12.0877 19.8185 11.8439 19.7446 11.5948 19.7297C11.5642 19.7251 11.5329 19.7227 11.501 19.7227H7.50257C6.6102 19.7227 5.88428 20.4617 5.88428 21.3699C5.88428 21.7028 5.98105 22.0223 6.1644 22.2962L7.08013 23.9102C7.08716 23.9254 7.09495 23.9404 7.10338 23.9552L8.10347 25.718C8.39138 26.2241 8.92756 26.5385 9.50263 26.5385C9.50269 26.5385 9.50269 26.5385 9.50275 26.5385C9.78598 26.5385 10.0659 26.4618 10.3113 26.317C10.5611 26.1701 10.7676 25.9575 10.9091 25.7022L11.8996 23.9563C11.9127 23.9333 11.9251 23.9101 11.937 23.887L12.9005 22.1883C13.3439 21.403 13.0768 20.397 12.3052 19.9455ZM11.8028 21.5449L10.8323 23.2559C10.8267 23.2657 10.8213 23.2758 10.8162 23.286C10.8124 23.2939 10.8082 23.3019 10.8032 23.3107L9.8103 25.061C9.80884 25.0635 9.80745 25.0659 9.80612 25.0684C9.77547 25.1241 9.73202 25.1689 9.67673 25.2014C9.62271 25.2332 9.56419 25.2494 9.50275 25.2494C9.37799 25.2494 9.26183 25.1814 9.20002 25.0728L8.22374 23.3518C8.21658 23.3366 8.20879 23.3216 8.20037 23.3067L7.24816 21.6282C7.23815 21.6106 7.22726 21.5933 7.2156 21.5767C7.18615 21.5346 7.15094 21.4644 7.15094 21.3699C7.15094 21.1724 7.3087 21.0117 7.50257 21.0117H11.4282C11.4522 21.0145 11.4765 21.016 11.501 21.016C11.5623 21.016 11.6206 21.0318 11.6741 21.0632C11.8402 21.1605 11.8976 21.377 11.8028 21.5449Z" fill="#283593"/>
</svg>
