<svg width="24" height="33" viewBox="0 0 24 33" fill="none" xmlns="http://www.w3.org/2000/svg">
    <path
        d="M23.4942 5.38647C23.7734 5.38647 23.9997 5.17003 23.9997 4.90307V1.80804C23.9997 0.811077 23.1515 0 22.1089 0H1.89075C0.848181 0 0 0.811077 0 1.8081V29.1761C0 30.173 0.848181 30.9842 1.89082 30.9842H2.24393V31.8648C2.24393 32.4908 2.77647 33 3.43107 33H4.86491C5.51951 33 6.05205 32.4908 6.05205 31.8648V30.9842H17.9479V31.8648C17.9479 32.4908 18.4805 33 19.1351 33H20.5689C21.2235 33 21.7561 32.4908 21.7561 31.8648V30.9842H22.1092C23.1518 30.9842 24 30.1731 24 29.1761V7.16292C24 6.89596 23.7737 6.67952 23.4945 6.67952C23.2153 6.67952 22.989 6.89596 22.989 7.16292V11.0993H8.59936C8.32018 11.0993 8.09385 11.3157 8.09385 11.5827C8.09385 11.8496 8.32018 12.0661 8.59936 12.0661H22.9887V29.1761C22.9887 29.64 22.5941 30.0174 22.1089 30.0174H1.89075C1.40566 30.0174 1.01096 29.64 1.01096 29.1761V12.066H6.23619C6.51537 12.066 6.7417 11.8496 6.7417 11.5826C6.7417 11.3156 6.51537 11.0992 6.23619 11.0992H1.01096V1.8081C1.01096 1.34423 1.40566 0.966795 1.89075 0.966795H22.1089C22.5941 0.966795 22.9887 1.34423 22.9887 1.8081V4.90313C22.9887 5.17003 23.215 5.38647 23.4942 5.38647ZM5.04089 31.8647C5.04089 31.9576 4.9619 32.0331 4.86477 32.0331H3.43094C3.33381 32.0331 3.25482 31.9576 3.25482 31.8647V30.9841H5.04089V31.8647ZM20.7448 31.8647C20.7448 31.9576 20.6658 32.0331 20.5687 32.0331H19.1348C19.0377 32.0331 18.9587 31.9576 18.9587 31.8647V30.9841H20.7448V31.8647Z"
        fill="#283593" />
    <path
        d="M2.29492 3.77835V8.28761C2.29492 9.04255 2.93719 9.65672 3.72667 9.65672C4.51614 9.65672 5.15841 9.04255 5.15841 8.28761V3.77835C5.15841 3.02341 4.51614 2.40924 3.72667 2.40924C2.93719 2.40924 2.29492 3.02341 2.29492 3.77835ZM4.14745 3.77835V8.28761C4.14745 8.50946 3.95866 8.68993 3.72667 8.68993C3.49467 8.68993 3.30588 8.50946 3.30588 8.28761V3.77835C3.30588 3.5565 3.49467 3.37597 3.72667 3.37597C3.95866 3.37597 4.14745 3.5565 4.14745 3.77835Z"
        fill="#283593" />
    <path
        d="M2.29492 14.5705V19.0798C2.29492 19.8347 2.93719 20.4489 3.72667 20.4489C4.51614 20.4489 5.15841 19.8347 5.15841 19.0798V14.5705C5.15841 13.8156 4.51614 13.2014 3.72667 13.2014C2.93719 13.2014 2.29492 13.8156 2.29492 14.5705ZM4.14745 14.5705V19.0798C4.14745 19.3016 3.95866 19.4822 3.72667 19.4822C3.49467 19.4822 3.30588 19.3016 3.30588 19.0798V14.5705C3.30588 14.3487 3.49467 14.1681 3.72667 14.1681C3.95866 14.1681 4.14745 14.3487 4.14745 14.5705Z"
        fill="#283593" />
</svg>
