<svg width="29" height="33" viewBox="0 0 29 33" fill="none" xmlns="http://www.w3.org/2000/svg">
<path d="M6.41846 24.3917C4.02444 24.3917 2.07678 26.3225 2.07678 28.6957C2.07678 28.8292 2.0839 28.9611 2.09585 29.0915C1.47637 29.0789 0.976114 28.5759 0.976114 27.9585V15.1774C0.976114 14.9103 0.75776 14.694 0.488057 14.694C0.218609 14.694 0 14.9103 0 15.1774V27.9585C0 29.1169 0.950695 30.0596 2.11949 30.0596H2.30149C2.87827 31.7661 4.50512 33 6.41846 33C8.81248 33 10.7601 31.0692 10.7601 28.696C10.7601 26.3225 8.81248 24.3917 6.41846 24.3917ZM6.41846 32.0332C4.56257 32.0332 3.0529 30.5359 3.0529 28.696C3.0529 26.8558 4.56257 25.3585 6.41846 25.3585C8.27435 25.3585 9.78402 26.8558 9.78402 28.696C9.78402 30.5359 8.27409 32.0332 6.41846 32.0332Z" fill="#283593"/>
<path d="M6.41802 26.4495C5.16839 26.4495 4.15186 27.4573 4.15186 28.696C4.15186 29.9347 5.16839 30.9423 6.41802 30.9423C7.66765 30.9423 8.68418 29.9347 8.68418 28.696C8.68418 27.4573 7.66765 26.4495 6.41802 26.4495ZM6.41802 29.9755C5.70677 29.9755 5.12797 29.4015 5.12797 28.6958C5.12797 27.9903 5.70677 27.4163 6.41802 27.4163C7.12951 27.4163 7.70806 27.9903 7.70806 28.6958C7.70806 29.4015 7.12926 29.9755 6.41802 29.9755Z" fill="#283593"/>
<path d="M6.7354 22.9883H16.5062C18.6234 22.9883 20.3458 21.2824 20.3458 19.1818C20.3458 17.0848 18.6234 15.3788 16.5062 15.3788H6.7354C4.6182 15.3788 2.89551 17.0848 2.89551 19.1854C2.89551 21.2824 4.6182 22.9883 6.7354 22.9883ZM6.7354 16.3456H16.5062C18.0853 16.3456 19.3697 17.6181 19.3697 19.1854C19.3697 20.7494 18.0853 22.0215 16.5062 22.0215H6.7354C5.15633 22.0215 3.87162 20.7494 3.87162 19.1818C3.87162 17.6181 5.15633 16.3456 6.7354 16.3456Z" fill="#283593"/>
<path d="M26.1921 4.46036V3.20402C26.1921 2.34423 25.4865 1.64481 24.6192 1.64481H16.7386C15.8713 1.64481 15.1656 2.34423 15.1656 3.20402V4.11065H14.4826V3.20402C14.4826 1.97035 15.4945 0.966797 16.7386 0.966797H24.6192C25.8632 0.966797 26.8752 1.97035 26.8752 3.20402V3.74961C26.8752 4.01649 27.0935 4.23301 27.3632 4.23301C27.6327 4.23301 27.8513 4.01649 27.8513 3.74961V3.20402C27.8513 1.43735 26.4014 0 24.6192 0H16.7386C14.9564 0 13.5065 1.43735 13.5065 3.20402V4.11065H4.56664C2.04857 4.11065 0 6.14143 0 8.63772V13.0862C0 13.3534 0.218355 13.5696 0.488057 13.5696H28.0239V27.9586C28.0239 28.5837 27.5109 29.0925 26.8805 29.0928H12.2782C12.0085 29.0928 11.7901 29.309 11.7901 29.5762C11.7901 29.8431 12.0085 30.0596 12.2782 30.0596H21.8367V31.5241H19.1697C18.9 31.5241 18.6817 31.7406 18.6817 32.0075C18.6817 32.2746 18.9 32.4909 19.1697 32.4909H25.3009C25.5704 32.4909 25.789 32.2746 25.789 32.0075C25.789 31.7406 25.5704 31.5241 25.3009 31.5241H22.8129V30.0596H26.8813C28.0496 30.0591 29 29.1164 29 27.9586V8.63772C29 6.75927 27.8396 5.14467 26.1921 4.46036ZM16.1417 3.20402C16.1417 2.87748 16.4094 2.61161 16.7386 2.61161H24.6192C24.9484 2.61161 25.216 2.87723 25.216 3.20402V4.17863C24.9616 4.13482 24.7003 4.11065 24.4334 4.11065H16.1417V3.20402ZM0.976114 8.63798C0.976114 6.67467 2.58696 5.07745 4.56664 5.07745H24.4334C26.4133 5.07745 28.0239 6.67467 28.0239 8.63798V12.6028H0.976114V8.63798Z" fill="#283593"/>
<path d="M23.4544 6.79199C22.1672 6.79199 21.1201 7.83004 21.1201 9.10576C21.1201 10.3817 22.1672 11.4198 23.4544 11.4198C24.7417 11.4198 25.7887 10.3817 25.7887 9.10576C25.7887 7.83004 24.7417 6.79199 23.4544 6.79199ZM23.4544 10.453C22.7055 10.453 22.0962 9.84873 22.0962 9.10601C22.0962 8.36304 22.7055 7.75879 23.4544 7.75879C24.2033 7.75879 24.8126 8.36304 24.8126 9.10601C24.8126 9.84873 24.2033 10.453 23.4544 10.453Z" fill="#283593"/>
<path d="M18.7308 9.92175H4.63991C4.37021 9.92175 4.15186 10.138 4.15186 10.4052C4.15186 10.672 4.37021 10.8885 4.63991 10.8885H18.7308C19.0005 10.8885 19.2188 10.672 19.2188 10.4052C19.2188 10.138 19.0005 9.92175 18.7308 9.92175Z" fill="#283593"/>
<path d="M18.7308 8.35675H4.63991C4.37021 8.35675 4.15186 8.57327 4.15186 8.84015C4.15186 9.10728 4.37021 9.32355 4.63991 9.32355H18.7308C19.0005 9.32355 19.2188 9.10728 19.2188 8.84015C19.2188 8.57327 19.0005 8.35675 18.7308 8.35675Z" fill="#283593"/>
<path d="M18.7308 6.79199H4.63991C4.37021 6.79199 4.15186 7.00826 4.15186 7.27539C4.15186 7.54227 4.37021 7.75879 4.63991 7.75879H18.7308C19.0005 7.75879 19.2188 7.54227 19.2188 7.27539C19.2188 7.00826 19.0005 6.79199 18.7308 6.79199Z" fill="#283593"/>
</svg>
