<svg width="30" height="33" viewBox="0 0 30 33" fill="none" xmlns="http://www.w3.org/2000/svg">
<path d="M29.5098 18.8803C29.239 18.8803 29.0196 19.0997 29.0196 19.3704V32.0198H17.0603C17.0599 32.0198 17.0595 32.0197 17.0591 32.0197H13.3333V15.0904H29.0195V17.7367C29.0195 18.0074 29.2389 18.2268 29.5097 18.2268C29.7805 18.2268 29.9999 18.0074 29.9999 17.7367V11.5618C29.9999 11.2912 29.7805 11.0717 29.5097 11.0717H17.5493V0.490102C17.5493 0.219463 17.3299 0 17.0591 0H0.490224C0.219453 0 0 0.219463 0 0.490102V2.77303C0 3.04367 0.219453 3.26313 0.490224 3.26313C0.760995 3.26313 0.980449 3.04367 0.980449 2.77303V0.980203H16.5688V11.0717H12.843C12.5722 11.0717 12.3528 11.2912 12.3528 11.5618V15.8745H0.980449V4.40672C0.980449 4.13609 0.760995 3.91662 0.490224 3.91662C0.219453 3.91662 0 4.13609 0 4.40672V32.5098C0 32.7805 0.219453 32.9999 0.490224 32.9999L29.5098 33C29.7805 33 30 32.7805 30 32.5099V19.3704C30 19.0997 29.7805 18.8803 29.5098 18.8803ZM19.3137 12.0519H29.0195V14.1102H19.3137V12.0519ZM13.3333 12.0519H18.3333V14.1102H13.3333V12.0519ZM12.3528 32.0197H0.980449V16.8546H12.3528V32.0197H12.3528Z" fill="#283593"/>
<path d="M2.74462 7.64124C2.47385 7.64124 2.25439 7.8607 2.25439 8.13134V14.1102C2.25439 14.3808 2.47385 14.6003 2.74462 14.6003C3.01539 14.6003 3.23484 14.3808 3.23484 14.1102V8.13134C3.23484 7.86063 3.01545 7.64124 2.74462 7.64124Z" fill="#283593"/>
<path d="M2.74462 18.1287C2.47385 18.1287 2.25439 18.3482 2.25439 18.6188V24.5978C2.25439 24.8684 2.47385 25.0879 2.74462 25.0879C3.01539 25.0879 3.23484 24.8684 3.23484 24.5978V18.6188C3.23484 18.3481 3.01539 18.1287 2.74462 18.1287Z" fill="#283593"/>
<path d="M21.1762 16.9525C17.6623 16.9525 14.8037 19.8106 14.8037 23.3235C14.8037 24.0355 14.9205 24.7348 15.1507 25.4021C15.2391 25.6579 15.5177 25.7938 15.774 25.7055C16.0299 25.6172 16.1658 25.3383 16.0776 25.0824C15.8829 24.5182 15.7842 23.9265 15.7842 23.3235C15.7842 20.3511 18.2031 17.9327 21.1763 17.9327C24.1495 17.9327 26.5684 20.351 26.5684 23.3235C26.5684 26.296 24.1495 28.7143 21.1763 28.7143C19.4841 28.7143 17.9227 27.9429 16.8925 26.5979C16.7279 26.3829 16.4202 26.342 16.2051 26.5067C15.9901 26.6713 15.9494 26.9789 16.1139 27.1938C17.3312 28.783 19.1763 29.6945 21.1762 29.6945C24.69 29.6945 27.5487 26.8365 27.5487 23.3235C27.5487 19.8106 24.69 16.9525 21.1762 16.9525Z" fill="#283593"/>
<path d="M23.8841 25.6382C23.2227 25.0504 22.8433 24.2068 22.8433 23.3238C22.8433 22.4408 23.2226 21.597 23.8841 21.0091C23.9888 20.9161 24.0487 20.7828 24.0487 20.6428C24.0487 20.5028 23.9888 20.3695 23.8842 20.2765C23.1373 19.6127 22.1757 19.2472 21.1766 19.2472C18.9283 19.2472 17.0991 21.0759 17.0991 23.3237C17.0991 25.5715 18.9282 27.4001 21.1766 27.4001C22.1757 27.4001 23.1373 27.0345 23.8842 26.3708C23.9888 26.2778 24.0487 26.1445 24.0487 26.0045C24.0487 25.8645 23.9888 25.7312 23.8841 25.6382ZM22.8206 25.9471C22.3307 26.2544 21.7622 26.4197 21.1765 26.4197C19.4689 26.4197 18.0795 25.0308 18.0795 23.3235C18.0795 21.6162 19.4689 20.2272 21.1765 20.2272C21.7621 20.2272 22.3307 20.3926 22.8206 20.6998C22.2064 21.4301 21.8628 22.3588 21.8628 23.3233C21.8628 24.288 22.2064 25.2169 22.8206 25.9471Z" fill="#283593"/>
</svg>
