<svg width="35" height="29" viewBox="0 0 35 29" fill="none" xmlns="http://www.w3.org/2000/svg">
<path d="M33.94 24.4268L31.4667 18.2554V1.49014C31.4667 0.758617 30.8667 0.160095 30.1333 0.160095H4C3.26667 0.160095 2.66667 0.758617 2.66667 1.49014V18.2554L0.193333 24.4268C0.0666667 24.7461 0 25.0852 0 25.4377C0.00666667 26.914 1.25333 28.0911 2.73333 28.0911H31.4C32.88 28.0911 34.1267 26.914 34.1333 25.4377C34.1333 25.0919 34.0733 24.7527 33.94 24.4268ZM4.22667 2.14852C4.22667 1.92241 4.41333 1.7362 4.64 1.7362H29.4867C29.7133 1.7362 29.9 1.92241 29.9 2.14852V17.5638C29.9 17.5638 29.9 17.5704 29.8933 17.5704H4.22667C4.22667 17.5704 4.22 17.5704 4.22 17.5638V2.14852H4.22667ZM31.9333 26.249H2.2C1.82 26.249 1.49333 25.963 1.47333 25.584C1.46667 25.4842 1.48667 25.3845 1.52 25.2914L3.89333 19.366C3.89333 19.366 3.89333 19.366 3.9 19.366H30.24C30.24 19.366 30.24 19.366 30.2467 19.366L32.62 25.2914C32.66 25.3845 32.6733 25.4842 32.6667 25.584C32.6467 25.963 32.3133 26.249 31.9333 26.249Z" fill="#283593"/>
<path d="M14.7331 23.3695H19.3997C19.7664 23.3695 20.0664 23.6422 20.0664 23.9747V24.5798C20.0664 24.9123 19.7664 25.185 19.3997 25.185H14.7331C14.3664 25.185 14.0664 24.9123 14.0664 24.5798V23.9747C14.0664 23.6422 14.3664 23.3695 14.7331 23.3695Z" fill="#283593"/>
</svg>
