<?xml version="1.0"?>
<svg xmlns="http://www.w3.org/2000/svg" xmlns:xlink="http://www.w3.org/1999/xlink" xmlns:svgjs="http://svgjs.com/svgjs" version="1.1" width="512" height="512" x="0" y="0" viewBox="0 0 64 64" style="enable-background:new 0 0 512 512" xml:space="preserve" class=""><g><g xmlns="http://www.w3.org/2000/svg" id="computer-document-learning-graduate-online_education" data-name="computer-document-learning-graduate-online education"><path d="m54 43h3v2a4 4 0 0 1 -4 4h-42a4 4 0 0 1 -4-4v-4h32v2h7v-7.82l-7-3.18 9-2 2 7 2-7 5 1.11 4 .89-7 3.18z" fill="#d2cbfe" data-original="#bddbff" style="" class=""/><path d="m50 9 6-1.8 4-1.2-10-3-10 3 4 1.2z" fill="#d2cbfe" data-original="#bddbff" style="" class=""/><path d="m58 19h-2l-3-2-5 2-1-2-3 2h-2a8.014 8.014 0 0 1 2.34-5.66c.12-.12.24-.23.37-.34h10.58c.13.11.25.22.37.34a8.014 8.014 0 0 1 2.34 5.66z" fill="#d2cbfe" data-original="#bddbff" style="" class=""/><path d="m44 59v2h-24v-2a2.006 2.006 0 0 1 2-2h20a2.006 2.006 0 0 1 2 2z" fill="#d2cbfe" data-original="#bddbff" style="" class=""/><g fill="#57a4ff"><path d="m6 6h2v2h-2z" fill="#283593" data-original="#57a4ff" style="" class=""/><path d="m10 6h12v2h-12z" fill="#283593" data-original="#57a4ff" style="" class=""/><path d="m6 10h16v2h-16z" fill="#283593" data-original="#57a4ff" style="" class=""/><path d="m6 14h16v2h-16z" fill="#283593" data-original="#57a4ff" style="" class=""/><path d="m6 18h16v2h-16z" fill="#283593" data-original="#57a4ff" style="" class=""/><path d="m6 22h16v2h-16z" fill="#283593" data-original="#57a4ff" style="" class=""/><path d="m6 26h16v2h-16z" fill="#283593" data-original="#57a4ff" style="" class=""/><path d="m61.22 31.02-3.22-.71v-10.31a1 1 0 0 0 1-1 8.93 8.93 0 0 0 -2.06-5.73.817.817 0 0 0 .06-.27v-5.06l2-.6v3.66h2v-5a1.008 1.008 0 0 0 -.71-.96l-10-3a1.14 1.14 0 0 0 -.58 0l-10 3a1 1 0 0 0 0 1.92l3.29.98v4.06h-17v-7a3.009 3.009 0 0 0 -3-3h-18a3.009 3.009 0 0 0 -3 3v24a3.009 3.009 0 0 0 3 3h1v13a5 5 0 0 0 5 5h15v6h-4a3.009 3.009 0 0 0 -3 3v2a1 1 0 0 0 1 1h24a1 1 0 0 0 1-1v-2a3.009 3.009 0 0 0 -3-3h-4v-6h15a5 5 0 0 0 5-5v-1h3a1 1 0 0 0 1-1v-11a1.015 1.015 0 0 0 -.78-.98zm-3.36 1.31-6.3 2.86 1.14-4.01zm-15.72 0 5.16-1.15 1.14 4.01zm2.86 3.5v6.17h-5v-8.45zm2 .9 2 .91v4.36h-2zm-2-15.73v-1.46l1.61-1.08.5.99a.981.981 0 0 0 .89.55.971.971 0 0 0 .37-.07l4.51-1.81 2.12 1.42v1.46a5 5 0 0 1 -10 0zm11 3.59v5.27l-3-.66v-1.88a7.07 7.07 0 0 0 3-2.73zm-7 3.33a6.29 6.29 0 0 0 2 0v1.94l-1 3.5-1-3.5zm2 9.72 2-.91v5.27h-2zm-1-33.6 6.52 1.96-6.52 1.96-6.52-1.96zm5 4.5v3.46h-10v-3.46l4.71 1.42a1.071 1.071 0 0 0 .58 0zm-9.95 5.51c.01-.02.03-.03.05-.05h9.8c.02.02.04.03.05.04a7.007 7.007 0 0 1 1.98 3.96h-.63l-2.75-1.83a.972.972 0 0 0 -.92-.1l-4.15 1.66-.59-1.18a1.024 1.024 0 0 0 -.63-.52 1 1 0 0 0 -.81.14l-2.75 1.83h-.63a6.979 6.979 0 0 1 1.98-3.95zm-19.05 14.95v-15h16.51a8.992 8.992 0 0 0 -1.51 5 1 1 0 0 0 1 1h1v1a7.01 7.01 0 0 0 4 6.32v1.88l-8.22 1.82a1.015 1.015 0 0 0 -.78.98v8h-30v-8h15a3.009 3.009 0 0 0 3-3zm-21 1a1 1 0 0 1 -1-1v-24a1 1 0 0 1 1-1h18a1 1 0 0 1 1 1v24a1 1 0 0 1 -1 1zm37 28a1 1 0 0 1 1 1v1h-22v-1a1 1 0 0 1 1-1zm-14-2v-6h8v6zm28-11a3.009 3.009 0 0 1 -3 3h-42a3.009 3.009 0 0 1 -3-3v-3h30v1a1 1 0 0 0 1 1h17zm4-3h-5v-6.17l5-2.28z" fill="#283593" data-original="#57a4ff" style="" class=""/></g></g></g></svg>
