<svg width="20" height="26" viewBox="0 0 20 26" fill="none" xmlns="http://www.w3.org/2000/svg">
<path d="M10 0C4.62354 0 0.25 4.37404 0.25 9.75C0.25 16.943 9.2457 25.4922 9.62869 25.8529C9.7334 25.9508 9.8667 26 10 26C10.1333 26 10.2666 25.9508 10.3714 25.8529C10.7543 25.4922 19.75 16.943 19.75 9.75C19.75 4.37404 15.3765 0 10 0ZM10 15.1667C7.0134 15.1667 4.58332 12.7366 4.58332 9.75C4.58332 6.7634 7.01345 4.33332 10 4.33332C12.9865 4.33332 15.4167 6.76345 15.4167 9.75C15.4167 12.7365 12.9866 15.1667 10 15.1667Z" fill="#283593"/>
</svg>
