<svg width="37" height="43" viewBox="0 0 37 43" fill="none" xmlns="http://www.w3.org/2000/svg">
<g filter="url(#filter0_d)">
<path d="M33 14.4148C33 6.53831 26.6374 0.131827 18.7409 0.00191924C10.7206 -0.127988 4.04844 6.35371 4.00029 14.3259C3.9659 19.7957 6.99931 24.5613 11.491 27.0295C12.3989 27.5286 13.1556 28.267 13.7196 29.1354L16.98 34.1744C17.6954 35.2752 19.3187 35.2752 20.034 34.1744L23.2945 29.1354C23.8585 28.267 24.6151 27.5286 25.53 27.0227C29.9803 24.5749 33 19.8436 33 14.4148Z" fill="#3F51B5"/>
<path d="M32.9999 14.4148C32.9999 19.8435 29.9802 24.5749 25.5161 27.0294C24.6081 27.5286 23.8446 28.267 23.2806 29.1353L20.0202 34.1744C19.3048 35.2751 17.6815 35.2751 16.9661 34.1744L16.918 34.0923C17.3513 33.9897 17.7503 33.7299 18.0185 33.3129L21.2789 28.2738C21.843 27.4055 22.5996 26.6671 23.5144 26.168C27.9786 23.7134 30.9982 18.982 30.9982 13.5533C30.9982 8.00143 27.841 3.18802 23.2187 0.781311C28.9141 2.72992 32.9999 8.09715 32.9999 14.4148Z" fill="#303F9F"/>
<path d="M18.5002 24.7185C24.2251 24.7185 28.866 20.1054 28.866 14.4148C28.866 8.72421 24.2251 4.11108 18.5002 4.11108C12.7752 4.11108 8.13428 8.72421 8.13428 14.4148C8.13428 20.1054 12.7752 24.7185 18.5002 24.7185Z" fill="#F5F5F5"/>
<path d="M15.0883 17.8402V13.8405C16.2714 13.2456 16.8354 11.885 16.4296 10.6338L14.8476 12.1927C14.7375 12.3021 14.5862 12.3636 14.428 12.3636C14.2698 12.3636 14.1253 12.3021 14.0084 12.1927L13.1279 11.3175C13.0179 11.2081 12.956 11.0577 12.956 10.9004C12.956 10.7432 13.0179 10.5928 13.1279 10.4834L14.6962 8.91081C14.3179 8.78774 13.9258 8.75355 13.5338 8.80141C12.2681 8.95867 11.257 10.0184 11.1744 11.2902C11.1057 12.3568 11.6834 13.3618 12.6396 13.8473V17.8471C11.4565 18.4419 10.8924 19.8025 11.2983 21.0537L12.8803 19.4948C12.9904 19.3854 13.1417 19.3239 13.2999 19.3239C13.4581 19.3239 13.6025 19.3854 13.7195 19.4948L14.5999 20.37C14.71 20.4794 14.7719 20.6298 14.7719 20.7871C14.7719 20.9443 14.71 21.0948 14.5999 21.2042L13.0316 22.7767C13.4099 22.8998 13.802 22.934 14.1941 22.8861C15.4597 22.7289 16.4709 21.6691 16.5534 20.3974C16.6222 19.3307 16.0444 18.3257 15.0883 17.8402Z" fill="#D6D6D4"/>
<path d="M15.0883 17.8402V14.784L12.6396 17.2181V17.8402C11.4565 18.4351 10.8924 19.7957 11.2983 21.0469L12.8803 19.488C13.1142 19.2624 13.4856 19.2624 13.7195 19.488L14.5999 20.3632C14.8338 20.5956 14.8338 20.9649 14.5999 21.1973L13.0316 22.7699C13.4099 22.8929 13.802 22.9271 14.1941 22.8793C15.4597 22.722 16.4709 21.6622 16.5534 20.3905C16.6222 19.3308 16.0444 18.3257 15.0883 17.8402Z" fill="#C7C7C5"/>
<path d="M13.6162 13.649H14.1046V18.0317H13.6162V13.649Z" fill="#B0B0AE"/>
<path d="M25.3784 19.9872V17.8471C25.3784 17.1224 24.8419 16.5002 24.1196 16.3976L21.9529 16.0899V14.6268H19.5041V16.0899L17.2342 16.5754C16.5533 16.719 16.0718 17.3138 16.0718 18.0044V19.9872" fill="#FEC9A3"/>
<path d="M19.4976 14.6268V15.4746C20.2404 15.9669 21.2034 15.9669 21.9463 15.4746V14.6268H19.4976Z" fill="#FEB784"/>
<path d="M24.1196 16.3976L21.9529 16.0899L21.4301 17.5531H20.0269L19.5041 16.0899L17.2342 16.5753C16.5533 16.7189 16.0718 17.3138 16.0718 18.0043V19.9871H25.3784V17.8471C25.3784 17.1155 24.8419 16.5001 24.1196 16.3976Z" fill="#E0E0DE"/>
<path d="M25.3784 17.8402V20.4726H23.6656V22.9066H17.7845V20.7119H16.0718V17.9975C16.0718 17.3069 16.5533 16.7121 17.2342 16.5685L19.5041 16.0831L20.7285 19.4949L21.9529 16.0831L24.1196 16.3907C24.8419 16.5001 25.3784 17.1155 25.3784 17.8402Z" fill="#425B82"/>
<path d="M25.3785 17.8403V20.4726H23.6658V22.9067H17.7847V21.758C20.5911 20.6504 22.9504 19.4744 24.9245 16.7874C25.2134 17.0608 25.3785 17.4437 25.3785 17.8403Z" fill="#3C5174"/>
<path d="M20.481 19.4949H20.9693V22.9067H20.481V19.4949Z" fill="#334562"/>
<path d="M21.458 19.2556H23.666V19.741H21.458V19.2556Z" fill="#334562"/>
<path d="M19.4976 19.0094H19.9859V19.4948H19.4976V19.0094Z" fill="#334562"/>
<path d="M23.418 18.524H23.9063V22.4212H23.418V18.524Z" fill="#334562"/>
<path d="M17.5371 18.524H18.0255V22.4212H17.5371V18.524Z" fill="#334562"/>
<path d="M18.5757 16.2814L18.7614 18.5172L20.0958 17.7582L19.4905 15.837L18.5757 16.2814Z" fill="#49648E"/>
<path d="M21.3477 17.7651L22.6821 18.524L22.8747 16.2199L21.9461 15.8438L21.3477 17.7651Z" fill="#49648E"/>
<path d="M17.0486 22.6605H17.7846L22.4413 21.6896H23.6657L24.1541 21.2042H25.3785V19.5017H24.1541L22.4413 20.2333L16.0719 20.7187V21.6896C16.065 22.2298 16.5052 22.6605 17.0486 22.6605Z" fill="#FEB784"/>
<path d="M24.4016 22.6605H23.6656L19.0089 21.6896H17.7845L17.2961 21.2042H16.0718V19.5017H17.2961L19.0089 20.2333L25.3784 20.7187V21.6896C25.3784 22.2298 24.9382 22.6605 24.4016 22.6605Z" fill="#FEC9A3"/>
<path d="M23.1705 11.7004H22.9229V13.1636H23.1705C23.5763 13.1636 23.9065 12.8354 23.9065 12.432C23.9065 12.0286 23.5763 11.7004 23.1705 11.7004Z" fill="#FEB784"/>
<path d="M18.2869 11.7004H18.2731C17.8673 11.7004 17.5371 12.0286 17.5371 12.432C17.5371 12.8354 17.8673 13.1636 18.2731 13.1636H18.5207V11.7004H18.2869Z" fill="#FEB784"/>
<path d="M22.9296 11.4611V13.1636C22.9296 14.3738 21.9391 15.3583 20.7216 15.3583C20.646 15.3583 20.5703 15.3515 20.4946 15.3447C19.3734 15.2284 18.5205 14.2849 18.5205 13.1636V11.4611C18.5205 10.2509 19.511 9.26636 20.7285 9.26636C20.7904 9.26636 20.8523 9.26636 20.9073 9.2732C22.0492 9.36892 22.9296 10.3193 22.9296 11.4611Z" fill="#FEC9A3"/>
<path d="M22.9296 11.4611V13.1636C22.9296 14.3738 21.9391 15.3583 20.7216 15.3583C20.646 15.3583 20.5703 15.3515 20.4946 15.3447C21.437 14.9002 22.0423 13.9567 22.0423 12.9174V11.4543C22.0423 10.5859 21.6158 9.77231 20.9073 9.27319C22.0492 9.36891 22.9296 10.3193 22.9296 11.4611Z" fill="#FEC093"/>
<path d="M19.6761 10.5244C20.3709 10.6612 21.0793 10.6612 21.7741 10.5244L21.9529 10.4902L22.9297 11.6252V11.4611C22.9297 10.2509 21.9392 9.26636 20.7217 9.26636C19.5042 9.26636 18.5137 10.2509 18.5137 11.4611V11.6252L19.4904 10.4902L19.6761 10.5244Z" fill="#7A432A"/>
<path d="M20.5086 13.8952H19.9927V13.4098H20.5086C20.8043 13.4098 21.1001 13.3687 21.389 13.2798L21.5335 13.7448C21.1964 13.8473 20.8525 13.8952 20.5086 13.8952Z" fill="#F7A468"/>
<path d="M21.8294 12.6782C22.0307 12.6782 22.194 12.5159 22.194 12.3158C22.194 12.1157 22.0307 11.9534 21.8294 11.9534C21.6281 11.9534 21.4648 12.1157 21.4648 12.3158C21.4648 12.5159 21.6281 12.6782 21.8294 12.6782Z" fill="#7A432A"/>
<path d="M19.6214 12.6782C19.8227 12.6782 19.986 12.5159 19.986 12.3158C19.986 12.1157 19.8227 11.9534 19.6214 11.9534C19.4201 11.9534 19.2568 12.1157 19.2568 12.3158C19.2568 12.5159 19.4201 12.6782 19.6214 12.6782Z" fill="#7A432A"/>
<path d="M23.2253 11.2491C23.2253 11.6594 22.8882 11.9876 22.4755 11.9876C22.4343 11.9876 22.393 11.9807 22.3586 11.9807L21.6845 11.8713C21.0448 11.7688 20.3913 11.7688 19.7516 11.8713L19.0775 11.9807C18.6717 12.0491 18.2934 11.7756 18.2246 11.3722C18.204 11.2423 18.2177 11.1056 18.2659 10.9756H23.1634C23.2115 11.0577 23.2253 11.1534 23.2253 11.2491Z" fill="#49648E"/>
<path d="M23.1704 9.99796V10.9688H18.2729V9.99796C18.2729 9.19116 18.9333 8.53479 19.7449 8.53479H21.7053C21.8635 8.53479 22.0217 8.56214 22.173 8.61C22.2006 8.61684 22.2281 8.63051 22.2556 8.63735C22.8059 8.86298 23.1704 9.40312 23.1704 9.99796Z" fill="#425B82"/>
<path d="M23.1703 9.99794V10.9688H19.002C20.4739 10.4834 21.4988 9.62873 22.2417 8.63733C22.8058 8.86296 23.1703 9.4031 23.1703 9.99794Z" fill="#3C5174"/>
<path d="M19.7451 9.99799H21.7055V10.9689H19.7451V9.99799Z" fill="#E0E0DE"/>
<path d="M19.7451 10.4834H21.7055V10.9688H19.7451V10.4834Z" fill="#D6D6D4"/>
<path d="M23.2253 11.2492C23.2253 11.6594 22.8883 11.9876 22.4756 11.9876C22.4343 11.9876 22.393 11.9808 22.3586 11.9808L21.6845 11.8714C21.4782 11.8372 21.2649 11.8167 21.0586 11.803C21.5745 11.5842 22.0009 11.3176 22.3105 10.9825H23.1703C23.2116 11.0578 23.2253 11.1535 23.2253 11.2492Z" fill="#425B82"/>
<path d="M28.8659 14.4148C28.8659 20.1033 24.223 24.7185 18.5 24.7185C17.3376 24.7185 16.2233 24.527 15.1777 24.1783C15.7005 24.2604 16.237 24.3014 16.7804 24.3014C22.5033 24.3014 27.1463 19.6863 27.1463 13.9977C27.1463 9.45777 24.1954 5.60841 20.0959 4.23413C25.0621 4.9999 28.8659 9.26633 28.8659 14.4148Z" fill="#D3D1D1"/>
</g>
<defs>
<filter id="filter0_d" x="0" y="0" width="37" height="43" filterUnits="userSpaceOnUse" color-interpolation-filters="sRGB">
<feFlood flood-opacity="0" result="BackgroundImageFix"/>
<feColorMatrix in="SourceAlpha" type="matrix" values="0 0 0 0 0 0 0 0 0 0 0 0 0 0 0 0 0 0 127 0"/>
<feOffset dy="4"/>
<feGaussianBlur stdDeviation="2"/>
<feColorMatrix type="matrix" values="0 0 0 0 0 0 0 0 0 0 0 0 0 0 0 0 0 0 0.25 0"/>
<feBlend mode="normal" in2="BackgroundImageFix" result="effect1_dropShadow"/>
<feBlend mode="normal" in="SourceGraphic" in2="effect1_dropShadow" result="shape"/>
</filter>
</defs>
</svg>
