<svg width="31" height="33" viewBox="0 0 31 33" fill="none" xmlns="http://www.w3.org/2000/svg">
<path d="M11.6377 28.1321C11.3239 28.1321 11.017 28.2249 10.7561 28.3989C10.4951 28.5728 10.2917 28.82 10.1716 29.1093C10.0515 29.3986 10.02 29.7169 10.0813 30.0239C10.1425 30.331 10.2936 30.6131 10.5156 30.8345C10.7375 31.0559 11.0203 31.2066 11.3281 31.2677C11.636 31.3288 11.955 31.2974 12.245 31.1776C12.535 31.0578 12.7828 30.8549 12.9572 30.5946C13.1316 30.3343 13.2247 30.0282 13.2247 29.7151C13.2247 29.2953 13.0575 28.8926 12.7599 28.5957C12.4623 28.2989 12.0586 28.1321 11.6377 28.1321ZM11.6377 30.2428C11.5331 30.2428 11.4308 30.2118 11.3438 30.1538C11.2568 30.0959 11.189 30.0135 11.149 29.917C11.109 29.8206 11.0985 29.7145 11.1189 29.6122C11.1393 29.5098 11.1897 29.4158 11.2637 29.342C11.3377 29.2682 11.4319 29.2179 11.5345 29.1976C11.6371 29.1772 11.7435 29.1877 11.8402 29.2276C11.9368 29.2675 12.0194 29.3352 12.0776 29.4219C12.1357 29.5087 12.1667 29.6107 12.1667 29.7151C12.1667 29.8551 12.111 29.9893 12.0118 30.0882C11.9126 30.1872 11.778 30.2428 11.6377 30.2428Z" fill="#283593"/>
<path d="M5.81877 4.91418H2.1159C1.9756 4.91418 1.84105 4.96978 1.74185 5.06874C1.64265 5.1677 1.58691 5.30193 1.58691 5.44188C1.58691 5.58183 1.64265 5.71605 1.74185 5.81502C1.84105 5.91398 1.9756 5.96957 2.1159 5.96957H5.81877C5.95906 5.96957 6.09361 5.91398 6.19281 5.81502C6.29202 5.71605 6.34775 5.58183 6.34775 5.44188C6.34775 5.30193 6.29202 5.1677 6.19281 5.06874C6.09361 4.96978 5.95906 4.91418 5.81877 4.91418Z" fill="#283593"/>
<path d="M7.93443 4.91418H7.40545C7.26515 4.91418 7.1306 4.96978 7.0314 5.06874C6.9322 5.1677 6.87646 5.30193 6.87646 5.44188C6.87646 5.58183 6.9322 5.71605 7.0314 5.81502C7.1306 5.91398 7.26515 5.96957 7.40545 5.96957H7.93443C8.07472 5.96957 8.20927 5.91398 8.30847 5.81502C8.40768 5.71605 8.46341 5.58183 8.46341 5.44188C8.46341 5.30193 8.40768 5.1677 8.30847 5.06874C8.20927 4.96978 8.07472 4.91418 7.93443 4.91418Z" fill="#283593"/>
<path d="M28.036 5.96951H23.2752V2.80343C23.2744 2.10395 22.9954 1.43335 22.4996 0.938732C22.0038 0.444119 21.3315 0.165877 20.6303 0.165039H2.64491C1.94369 0.165877 1.27144 0.444119 0.775604 0.938732C0.279769 1.43335 0.000839948 2.10395 0 2.80343V30.2427C0.000839948 30.9422 0.279769 31.6128 0.775604 32.1074C1.27144 32.6021 1.94369 32.8803 2.64491 32.8811H20.6303C21.1447 32.8817 21.6481 32.7321 22.0784 32.4508C22.5087 32.1695 22.8471 31.7688 23.052 31.2981H28.036C28.7373 31.2973 29.4095 31.019 29.9053 30.5244C30.4012 30.0298 30.6801 29.3592 30.681 28.6597V8.6079C30.6801 7.90841 30.4012 7.23781 29.9053 6.7432C29.4095 6.24859 28.7373 5.97035 28.036 5.96951ZM25.7715 7.02486L25.507 8.08022H21.0434L20.7789 7.02486H25.7715ZM18.5144 5.96951C17.8132 5.97035 17.1409 6.24859 16.6451 6.7432C16.1492 7.23781 15.8703 7.90841 15.8695 8.6079V26.549H1.05796V4.38647H22.2172V5.96951H18.5144ZM1.05796 2.80343C1.05796 2.38359 1.22516 1.98093 1.52277 1.68406C1.82038 1.38718 2.22403 1.2204 2.64491 1.2204H20.6303C21.0512 1.2204 21.4548 1.38718 21.7524 1.68406C22.05 1.98093 22.2172 2.38359 22.2172 2.80343V3.33111H1.05796V2.80343ZM20.6303 31.8258H2.64491C2.22403 31.8258 1.82038 31.659 1.52277 31.3621C1.22516 31.0652 1.05796 30.6626 1.05796 30.2427V27.6043H15.8695V28.6597C15.8703 29.3592 16.1492 30.0298 16.6451 30.5244C17.1409 31.019 17.8132 31.2973 18.5144 31.2981H21.8115C21.663 31.4641 21.481 31.5969 21.2774 31.6878C21.0739 31.7788 20.8533 31.8258 20.6303 31.8258ZM29.623 28.6597C29.623 29.0795 29.4558 29.4822 29.1582 29.7791C28.8606 30.076 28.4569 30.2427 28.036 30.2427H18.5144C18.0935 30.2427 17.6898 30.076 17.3922 29.7791C17.0946 29.4822 16.9274 29.0795 16.9274 28.6597V8.6079C16.9274 8.18805 17.0946 7.7854 17.3922 7.48853C17.6898 7.19165 18.0935 7.02486 18.5144 7.02486H19.6887L20.1172 8.73613C20.1458 8.85024 20.2119 8.95152 20.3049 9.02389C20.3978 9.09627 20.5124 9.13558 20.6303 9.13558H25.9201C26.038 9.13558 26.1526 9.09627 26.2456 9.02389C26.3385 8.95152 26.4046 8.85024 26.4332 8.73613L26.8617 7.02486H28.036C28.4569 7.02486 28.8606 7.19165 29.1582 7.48853C29.4558 7.7854 29.623 8.18805 29.623 8.6079V28.6597Z" fill="#283593"/>
</svg>
