<?xml version="1.0" encoding="utf-8"?>
<!-- Generator: Adobe Illustrator 24.1.1, SVG Export Plug-In . SVG Version: 6.00 Build 0)  -->
<svg version="1.1" id="Layer_1" xmlns="http://www.w3.org/2000/svg" xmlns:xlink="http://www.w3.org/1999/xlink" x="0px" y="0px"
	 viewBox="0 0 125 125" style="enable-background:new 0 0 125 125;" xml:space="preserve">
<g>
	<g>
		<path d="M117.44,1.7c1.87-0.75,4.21,0.11,5.09,1.94c0.61,1.14,0.54,2.53,0.05,3.7C109.14,44.97,95.7,82.6,82.26,120.23
			c-0.36,1.25-1.05,2.49-2.27,3.07c-1.92,1.05-4.55,0.19-5.5-1.77C66.52,105.63,58.58,89.7,50.61,73.8
			C34.75,65.86,18.89,57.93,3.03,50.01c-1.42-0.66-2.42-2.15-2.39-3.73c-0.03-1.7,1.15-3.32,2.76-3.85
			C41.41,28.86,79.42,15.28,117.44,1.7z M15.12,46.89c12.56,6.34,25.16,12.58,37.73,18.89C69.63,49,86.42,32.23,103.19,15.44
			C73.84,25.93,44.48,36.42,15.12,46.89z M108.98,21.18c-16.77,16.8-33.57,33.57-50.34,50.37c6.29,12.57,12.57,25.16,18.87,37.73
			C88.03,79.93,98.47,50.54,108.98,21.18z"/>
	</g>
</g>
</svg>
