<svg width="29" height="32" viewBox="0 0 29 32" fill="none" xmlns="http://www.w3.org/2000/svg">
<path d="M23.7483 18.1974L23.1945 17.6656L27.4271 13.3118C28.5932 12.1153 28.6373 10.1902 27.4683 8.98997C26.2529 7.74938 24.2631 7.76035 23.0666 8.99391L18.784 13.3936L16.5787 11.2576L20.8113 6.90367C21.9774 5.70717 22.0215 3.78214 20.8524 2.58187C19.6371 1.34128 17.6473 1.35225 16.4508 2.58581L12.1681 6.98549L11.6143 6.45377C10.7007 5.57117 9.24855 5.59549 8.35417 6.50641L4.07156 10.9061C1.03506 14.036 0.881729 18.9569 3.72886 22.2612L2.63319 23.384C1.66757 24.3877 1.49641 25.9143 2.22377 27.1053L0.212913 29.1765C-0.0283903 29.425 -0.0260263 29.8182 0.222721 30.0685L0.425965 30.2593C0.675122 30.5 1.06925 30.4976 1.32014 30.2495L3.331 28.1783C4.54097 28.8722 6.06893 28.6498 7.05333 27.6565L8.14899 26.5336C11.5492 29.2671 16.4728 28.9691 19.5185 25.8492L23.8011 21.4495C24.6763 20.5377 24.6523 19.0796 23.7483 18.1974ZM24.1646 10.0569C24.7577 9.44952 25.729 9.43344 26.3379 10.025C26.9468 10.6166 26.9629 11.5856 26.3699 12.193L20.4886 18.2404L18.2829 16.114L24.1646 10.0569ZM17.5484 3.65841C18.1414 3.05099 19.1128 3.03491 19.7217 3.6265C20.3306 4.21809 20.3467 5.18702 19.7537 5.79444L13.8724 11.8419L11.6671 9.70588L17.5484 3.65841ZM5.9457 26.593C5.35265 27.2004 4.38132 27.2165 3.7724 26.6249C3.16349 26.0333 3.14737 25.0644 3.74042 24.457L5.88173 22.2572C6.47478 21.6497 7.44611 21.6337 8.05502 22.2253C8.66394 22.8168 8.68005 23.7858 8.087 24.3932L5.9457 26.593ZM18.4112 24.7761C15.9582 27.2982 11.9967 27.5702 9.21547 25.4192C10.392 24.2039 10.3593 22.2756 9.15109 21.0929C7.93286 19.9193 6.0002 19.9423 4.8141 21.1571C2.57589 18.4444 2.72615 14.4916 5.1792 11.9695L9.46181 7.56984C9.75354 7.26593 10.244 7.2581 10.5487 7.54911L11.1025 8.08083L10.0268 9.18533C9.7351 9.48924 9.74295 9.97849 10.0476 10.2695L13.3509 13.4686C13.6556 13.7596 14.1461 13.7517 14.4378 13.4478L15.5034 12.3525L17.7087 14.4885L16.6431 15.5839C16.3513 15.8878 16.3592 16.377 16.6638 16.668L19.9672 19.8671C20.2718 20.1581 20.7623 20.1503 21.054 19.8464L22.1197 18.751L22.6735 19.2827C22.9782 19.5737 22.986 20.063 22.6943 20.3669L18.4112 24.7761Z" fill="#283593"/>
</svg>
