<svg width="36" height="29" viewBox="0 0 36 29" fill="none" xmlns="http://www.w3.org/2000/svg">
<path d="M35.8152 7.1664L32.7448 4.74684C32.6575 4.67819 32.5491 4.64077 32.4374 4.64073H23.0096V2.42426C23.009 1.78151 22.7495 1.16527 22.2881 0.710779C21.8267 0.256285 21.2012 0.000660098 20.5487 0H15.451C14.7986 0.000733291 14.1731 0.256381 13.7117 0.71086C13.2504 1.16534 12.9908 1.78153 12.9901 2.42426V4.64073H3.56259C3.49795 4.6407 3.43393 4.65321 3.3742 4.67757C3.31447 4.70192 3.26019 4.73763 3.21448 4.78266C3.16877 4.82769 3.13252 4.88115 3.1078 4.94C3.08307 4.99884 3.07037 5.0619 3.07041 5.12558V7.09769H1.61719C1.18825 7.0982 0.777042 7.26636 0.473842 7.56525C0.170641 7.86414 0.000223206 8.26934 0 8.69188L0 17.4915C0.000520999 17.9139 0.17107 18.3188 0.474239 18.6175C0.777407 18.9161 1.18844 19.0841 1.61719 19.0846H3.07041V21.0567C3.07037 21.1204 3.08307 21.1835 3.1078 21.2423C3.13252 21.3012 3.16877 21.3546 3.21448 21.3997C3.26019 21.4447 3.31447 21.4804 3.3742 21.5048C3.43393 21.5291 3.49795 21.5416 3.56259 21.5416H6.67969V24.9827H5.90625C5.36546 24.9827 4.84681 25.1943 4.46442 25.571C4.08202 25.9477 3.86719 26.4586 3.86719 26.9913C3.86719 27.5241 4.08202 28.035 4.46442 28.4117C4.84681 28.7884 5.36546 29 5.90625 29H30.0938C30.6345 29 31.1532 28.7884 31.5356 28.4117C31.918 28.035 32.1328 27.5241 32.1328 26.9913C32.1328 26.4586 31.918 25.9477 31.5356 25.571C31.1532 25.1943 30.6345 24.9827 30.0938 24.9827H29.8125V21.5402H32.4374C32.5491 21.5402 32.6575 21.5028 32.7448 21.4341L35.8152 19.0154C35.8728 18.9699 35.9193 18.9122 35.9513 18.8467C35.9833 18.7811 35.9999 18.7094 36 18.6366V7.54514C36 7.4724 35.9834 7.40059 35.9514 7.33504C35.9194 7.26948 35.8729 7.21184 35.8152 7.1664ZM13.9745 2.42426C13.9749 2.03863 14.1306 1.66891 14.4074 1.39622C14.6842 1.12353 15.0596 0.970145 15.451 0.969705H20.5487C20.9402 0.970145 21.3155 1.12353 21.5923 1.39622C21.8691 1.66891 22.0248 2.03863 22.0252 2.42426V4.64073H13.9745V2.42426ZM13.4823 5.61044H28.8281V20.5705H7.66406V5.61154L13.4823 5.61044ZM11.086 24.9802V21.5402H25.4062V24.9813L11.086 24.9802ZM1.61719 18.1135C1.44967 18.1133 1.28905 18.0478 1.17046 17.9312C1.05188 17.8146 0.98497 17.6566 0.984375 17.4915V8.69188C0.984598 8.52662 1.05134 8.36819 1.16997 8.25133C1.2886 8.13447 1.44942 8.06872 1.61719 8.0685H3.07041V18.1135H1.61719ZM4.05478 18.5984V5.61154H6.67969V20.5705H4.05478V18.5984ZM7.66406 21.5402H10.1017V24.9813H7.66406V21.5402ZM31.1484 26.9899C31.1481 27.2654 31.0368 27.5294 30.8391 27.7242C30.6414 27.919 30.3734 28.0285 30.0938 28.0289H5.90625C5.62653 28.0289 5.35827 27.9194 5.16047 27.7246C4.96268 27.5298 4.85156 27.2655 4.85156 26.9899C4.85156 26.7144 4.96268 26.4501 5.16047 26.2553C5.35827 26.0604 5.62653 25.951 5.90625 25.951H30.0938C30.3734 25.9513 30.6414 26.0609 30.8391 26.2557C31.0368 26.4504 31.1481 26.7145 31.1484 26.9899ZM26.3905 24.9813V21.5402H28.8281V24.9813H26.3905ZM35.0156 18.4036L32.265 20.5705H29.8125V5.61154H32.265L35.0156 7.77842V18.4036Z" fill="#283593"/>
<path d="M9.77344 8.37937H26.7188C26.8493 8.37937 26.9745 8.32829 27.0668 8.23736C27.1591 8.14644 27.2109 8.02311 27.2109 7.89452C27.2109 7.76593 27.1591 7.64261 27.0668 7.55168C26.9745 7.46075 26.8493 7.40967 26.7188 7.40967H9.77344C9.6429 7.40967 9.51771 7.46075 9.42541 7.55168C9.3331 7.64261 9.28125 7.76593 9.28125 7.89452C9.28125 8.02311 9.3331 8.14644 9.42541 8.23736C9.51771 8.32829 9.6429 8.37937 9.77344 8.37937Z" fill="#283593"/>
<path d="M9.77344 10.9776H26.7188C26.8493 10.9776 26.9745 10.9266 27.0668 10.8356C27.1591 10.7447 27.2109 10.6214 27.2109 10.4928C27.2109 10.3642 27.1591 10.2409 27.0668 10.1499C26.9745 10.059 26.8493 10.0079 26.7188 10.0079H9.77344C9.6429 10.0079 9.51771 10.059 9.42541 10.1499C9.3331 10.2409 9.28125 10.3642 9.28125 10.4928C9.28125 10.6214 9.3331 10.7447 9.42541 10.8356C9.51771 10.9266 9.6429 10.9776 9.77344 10.9776Z" fill="#283593"/>
<path d="M9.77344 13.5758H26.7188C26.8493 13.5758 26.9745 13.5248 27.0668 13.4338C27.1591 13.3429 27.2109 13.2196 27.2109 13.091C27.2109 12.9624 27.1591 12.8391 27.0668 12.7481C26.9745 12.6572 26.8493 12.6061 26.7188 12.6061H9.77344C9.6429 12.6061 9.51771 12.6572 9.42541 12.7481C9.3331 12.8391 9.28125 12.9624 9.28125 13.091C9.28125 13.2196 9.3331 13.3429 9.42541 13.4338C9.51771 13.5248 9.6429 13.5758 9.77344 13.5758Z" fill="#283593"/>
<path d="M9.77344 16.1741H26.7188C26.8493 16.1741 26.9745 16.123 27.0668 16.0321C27.1591 15.9412 27.2109 15.8179 27.2109 15.6893C27.2109 15.5607 27.1591 15.4373 27.0668 15.3464C26.9745 15.2555 26.8493 15.2044 26.7188 15.2044H9.77344C9.6429 15.2044 9.51771 15.2555 9.42541 15.3464C9.3331 15.4373 9.28125 15.5607 9.28125 15.6893C9.28125 15.8179 9.3331 15.9412 9.42541 16.0321C9.51771 16.123 9.6429 16.1741 9.77344 16.1741Z" fill="#283593"/>
<path d="M9.77344 18.7723H26.7188C26.8493 18.7723 26.9745 18.7212 27.0668 18.6303C27.1591 18.5394 27.2109 18.4161 27.2109 18.2875C27.2109 18.1589 27.1591 18.0356 27.0668 17.9446C26.9745 17.8537 26.8493 17.8026 26.7188 17.8026H9.77344C9.6429 17.8026 9.51771 17.8537 9.42541 17.9446C9.3331 18.0356 9.28125 18.1589 9.28125 18.2875C9.28125 18.4161 9.3331 18.5394 9.42541 18.6303C9.51771 18.7212 9.6429 18.7723 9.77344 18.7723Z" fill="#283593"/>
<path d="M19.8105 2.32092H16.1895C16.0589 2.32092 15.9337 2.37201 15.8414 2.46293C15.7491 2.55386 15.6973 2.67718 15.6973 2.80578C15.6973 2.93437 15.7491 3.05769 15.8414 3.14862C15.9337 3.23955 16.0589 3.29063 16.1895 3.29063H19.8105C19.9411 3.29063 20.0663 3.23955 20.1586 3.14862C20.2509 3.05769 20.3027 2.93437 20.3027 2.80578C20.3027 2.67718 20.2509 2.55386 20.1586 2.46293C20.0663 2.37201 19.9411 2.32092 19.8105 2.32092Z" fill="#283593"/>
</svg>
