<svg width="30" height="30" viewBox="0 0 28 28" fill="none" xmlns="http://www.w3.org/2000/svg">
    <path fill="#283593" d="M21.1,19.8c1-0.1,1-1.6,0-1.6c-3,0-10.6,0-13.6,0c-0.8,0-1.6-0.6-1.8-1.4L4.1,9.5C3.9,9,4,8.5,4.3,8.3
	C4.6,8,4.9,7.7,5.4,7.7c1.2,0,11.4-0.1,16.7-0.1l0.8-3.1c0.2-0.7,0.8-1.3,1.7-1.3h2.7c0.4,0,0.7,0.3,0.7,0.7s-0.3,0.7-0.7,0.7h-2.7
	c-0.1,0-0.3,0.1-0.3,0.2l-3.1,11.9c0.6,0,1.1,0.3,1.5,0.6c0.5,0.5,0.6,1,0.6,1.6c0,1.2-1,2.1-2.2,2.1h-1c0.2,0.3,0.3,0.6,0.3,1
	c0,1.4-1.1,2.5-2.5,2.5c-1.4,0-2.5-1.1-2.5-2.5c0-0.4,0.1-0.7,0.3-1h-4.4c0.2,0.3,0.3,0.6,0.3,1c0,1.4-1.1,2.5-2.5,2.5
	s-2.5-1.1-2.5-2.5c0-0.4,0.1-0.7,0.3-1.1c-0.3-0.1-0.5-0.4-0.5-0.6c0-0.4,0.3-0.7,0.7-0.7L21.1,19.8z M16.7,22.2c0,0.6,0.5,1,1,1
	s1-0.5,1-1s-0.5-1-1-1l0,0C17.2,21.2,16.7,21.7,16.7,22.2z M8.9,23.3c0.6,0,1-0.5,1-1c0-0.6-0.5-1-1-1l0,0c-0.6,0-1,0.5-1,1
	C7.9,22.9,8.3,23.3,8.9,23.3L8.9,23.3z M5.4,9.1L5.4,9.1l0.7,3.1h2.4L8.2,9.1H5.4L5.4,9.1L5.4,9.1z M12.7,16.8v-3.1h-2.5l0.4,3.1
	H12.7z M16.2,16.8l0.5-3.1h-2.5v3.1H16.2z M19.4,16.8L19.4,16.8c0.2,0,0.4-0.1,0.4-0.3l0.7-2.9h-2.6l-0.4,3.1H19.4z M16.7,12.2
	l0.5-3.1h-3.1v3.1H16.7z M12.7,12.2V9.1H9.5l0.5,3.1H12.7z M18.6,9.1l-0.5,3.2h2.8l0.8-3.2H18.6z M7.4,16.8h1.8l-0.4-3.1H6.5
	l0.6,2.9C7.1,16.7,7.3,16.8,7.4,16.8z" />
</svg>
