<svg width="37" height="38" viewBox="0 0 37 38" fill="none" xmlns="http://www.w3.org/2000/svg">
<path d="M30.0107 0.672424H30.0829C30.3573 0.708441 30.6317 0.866912 30.74 1.13343C30.8628 1.47199 30.805 1.83935 30.8122 2.19231C30.7978 2.56688 30.87 2.95586 30.7328 3.30882C30.5306 3.78423 29.8085 3.87787 29.4764 3.4889C29.2381 3.23678 29.2742 2.86942 29.2742 2.55247C29.2886 2.13468 29.2453 1.70969 29.303 1.2919C29.3608 0.938945 29.6785 0.708441 30.0107 0.672424Z" fill="#283593"/>
<path d="M25.4542 2.51637C25.7358 2.41552 26.0463 2.51637 26.2557 2.71807C26.5806 3.02781 26.8839 3.34476 27.2016 3.65451C27.3966 3.8418 27.5699 4.08672 27.541 4.37486C27.5266 4.81426 27.0717 5.16003 26.6456 5.07359C26.2701 5.00155 26.0463 4.65579 25.7863 4.41808C25.5336 4.13714 25.2231 3.91384 25.0209 3.58968C24.7898 3.2007 25.0209 2.64603 25.4542 2.51637Z" fill="#283593"/>
<path d="M34.126 2.53077C34.581 2.33628 35.1514 2.69645 35.1586 3.19348C35.1875 3.69771 34.7037 3.97864 34.4149 4.30999C34.0755 4.60533 33.8011 5.08795 33.2956 5.08795C32.754 5.09516 32.3641 4.44686 32.6385 3.97864C32.8696 3.61847 33.2234 3.35915 33.5122 3.04221C33.7 2.86212 33.8805 2.63882 34.126 2.53077Z" fill="#283593"/>
<path d="M29.2885 3.82008C30.2633 3.6256 31.3031 3.82008 32.1335 4.36032C32.7834 4.80692 33.3322 5.42639 33.6211 6.16832C34.0688 7.27761 33.9532 8.603 33.3033 9.61865C32.8701 10.2597 32.2707 10.8144 31.5486 11.1169C30.4944 11.5707 29.2379 11.5203 28.227 10.9729C27.3171 10.4686 26.595 9.61145 26.3206 8.603C25.9885 7.42168 26.2557 6.06748 27.0788 5.14547C27.6493 4.46837 28.4292 3.98576 29.2885 3.82008ZM29.5773 5.33996C29.2596 5.40478 28.9563 5.54164 28.6891 5.72893C27.8226 6.334 27.4904 7.56574 27.9381 8.52377C28.3858 9.56103 29.6567 10.1445 30.7327 9.77712C31.8736 9.44577 32.6029 8.142 32.2707 7.00389C31.9963 5.85138 30.7327 5.06623 29.5773 5.33996Z" fill="#283593"/>
<path d="M23.7355 6.84557C24.1543 6.78795 24.5731 6.83117 24.9992 6.81676C25.3313 6.81676 25.7213 6.78795 25.9668 7.05444C26.3423 7.40736 26.2051 8.1204 25.7141 8.29326C25.2952 8.4157 24.8475 8.32927 24.4143 8.35808C24.0316 8.35808 23.5478 8.4157 23.2878 8.06278C22.9268 7.65224 23.1939 6.9248 23.7355 6.84557Z" fill="#283593"/>
<path d="M34.1618 7.01849C34.4145 6.78079 34.7828 6.82401 35.1005 6.8168C35.5121 6.83121 35.9237 6.78799 36.3353 6.83841C36.6891 6.88163 36.9419 7.20576 36.978 7.5443V7.61633C36.9419 7.96928 36.6747 8.30061 36.3137 8.33663C35.8876 8.37985 35.4544 8.34383 35.0283 8.35824C34.7395 8.35824 34.4001 8.37264 34.169 8.15655C33.8296 7.88284 33.8296 7.2994 34.1618 7.01849Z" fill="#283593"/>
<path d="M33.2671 10.0871C33.4909 10.0655 33.7075 10.1663 33.8736 10.3248C34.1697 10.6057 34.4513 10.9082 34.7474 11.1891C34.9279 11.3692 35.1301 11.5637 35.1589 11.8302C35.2095 12.1327 35.0434 12.4568 34.7762 12.6009C34.5091 12.7593 34.148 12.7233 33.9097 12.5144C33.5992 12.2479 33.332 11.9454 33.036 11.6645C32.8266 11.4556 32.5739 11.2395 32.5522 10.9298C32.5016 10.512 32.8555 10.1015 33.2671 10.0871Z" fill="#283593"/>
<path d="M26.4651 10.1519C26.8911 9.94305 27.4399 10.2312 27.5193 10.685C27.5915 10.9803 27.4399 11.2756 27.2305 11.4773C26.8911 11.8086 26.5661 12.1543 26.2195 12.4785C25.974 12.7162 25.5624 12.7666 25.2736 12.5721C24.9342 12.3632 24.8187 11.8662 25.0425 11.5349C25.2375 11.254 25.5119 11.0379 25.743 10.7858C25.9812 10.5697 26.1762 10.3032 26.4651 10.1519Z" fill="#283593"/>
<path d="M29.7723 11.4844C30.1694 11.3403 30.6605 11.5564 30.7688 11.9742C30.8554 12.356 30.7977 12.745 30.8121 13.1339C30.7977 13.4941 30.8843 13.9119 30.6316 14.2144C30.3716 14.5458 29.8301 14.5818 29.5268 14.2936C29.2957 14.0992 29.2668 13.775 29.274 13.4941C29.2813 13.0475 29.2596 12.6009 29.2885 12.1543C29.2957 11.8662 29.4979 11.5924 29.7723 11.4844Z" fill="#283593"/>
<path d="M3.36498 14.6825C3.67548 14.4232 4.10874 14.5097 4.47701 14.4952C12.3262 14.4952 20.1754 14.4952 28.0246 14.4952C28.3496 14.5024 28.7323 14.452 28.9922 14.6825C29.2739 14.9058 29.2811 15.2876 29.3389 15.6117C30.1115 20.2578 30.8914 24.8967 31.664 29.5428C31.9023 30.9114 32.1045 32.2872 32.3717 33.6558C32.4078 34.0736 32.0467 34.4626 31.6279 34.4626C30.8408 34.4842 30.061 34.4626 29.2739 34.4698C29.2739 35.1613 29.2666 35.8456 29.2739 36.5371C29.2739 36.782 29.2594 37.0557 29.0933 37.2574C28.9561 37.4375 28.7251 37.5167 28.5084 37.5455H26.9054C26.6238 37.5095 26.3783 37.3366 26.2555 37.0845C25.8222 36.2129 25.3818 35.3486 24.9557 34.477C19.1067 34.4698 13.2577 34.4698 7.40873 34.477C6.98269 35.3486 6.54221 36.2129 6.10895 37.0773C5.99342 37.3366 5.7479 37.5023 5.46628 37.5455H3.856C3.63215 37.5167 3.40108 37.4375 3.26388 37.2574C3.0978 37.0629 3.08336 36.7892 3.08336 36.5443C3.09058 35.86 3.08336 35.1685 3.08336 34.4842C2.29627 34.477 1.51641 34.4914 0.729319 34.477C0.346607 34.477 0.0649888 34.1456 0 33.7927V33.6414C1.01094 27.6627 2.00743 21.6913 3.00393 15.727C3.06892 15.3668 3.0617 14.9346 3.36498 14.6825ZM4.51311 16.0367C4.07986 18.6011 3.66104 21.1582 3.22778 23.7226C7.29319 23.7226 11.3514 23.7226 15.4096 23.7226C15.4096 21.1654 15.4096 18.6011 15.4096 16.0439C11.7774 16.0367 8.14527 16.0439 4.51311 16.0367ZM16.9549 16.0439C16.9549 18.6011 16.9549 21.1654 16.9549 23.7226C21.0203 23.7226 25.0785 23.7226 29.1367 23.7226C28.7034 21.1654 28.2846 18.6011 27.8513 16.0439C24.2192 16.0367 20.587 16.0439 16.9549 16.0439ZM2.96782 25.2641C2.54179 27.8212 2.10853 30.3855 1.68249 32.9427C6.26059 32.9427 10.8315 32.9427 15.4096 32.9427C15.4096 30.3855 15.4096 27.8212 15.4096 25.2641C11.2647 25.2641 7.11989 25.2641 2.96782 25.2641ZM16.9549 25.2641C16.9549 27.8212 16.9549 30.3855 16.9549 32.9427C21.533 32.9427 26.1039 32.9427 30.682 32.9427C30.2559 30.3855 29.8227 27.8212 29.3966 25.2641C25.2446 25.2568 21.0997 25.2641 16.9549 25.2641ZM4.63587 34.477C4.62865 34.9884 4.62865 35.507 4.63587 36.0185C4.72974 36.0185 4.83084 36.0185 4.92471 36.0185C5.19189 35.507 5.4374 34.9956 5.69736 34.4842C5.33631 34.477 4.98248 34.4842 4.63587 34.477ZM26.6743 34.4842C26.9343 34.9956 27.187 35.5142 27.4542 36.0185C27.548 36.0185 27.6419 36.0185 27.7358 36.0185C27.7358 35.507 27.743 34.9956 27.7358 34.4842C27.382 34.4842 27.0281 34.477 26.6743 34.4842Z" fill="#283593"/>
</svg>
