<svg width="36" height="28" viewBox="0 0 36 28" fill="none" xmlns="http://www.w3.org/2000/svg">
<path d="M32.9999 0.157654H3.00002C1.3462 0.157654 0 1.49976 0 3.15027V21.1059C0 22.7563 1.3462 24.0985 3.00002 24.0985H15.75V25.5947H11.25C10.8354 25.5947 10.4999 25.9294 10.4999 26.3429C10.4999 26.7565 10.8354 27.0911 11.25 27.0911H24.7499C25.1645 27.0911 25.5 26.7565 25.5 26.3429C25.5 25.9294 25.1645 25.5947 24.7499 25.5947H20.2499V24.0985H32.9999C34.6537 24.0985 35.9999 22.7564 35.9999 21.1059V3.15027C35.9999 1.49976 34.6537 0.157654 32.9999 0.157654ZM18.75 25.5947H17.25V24.0985H18.75V25.5947ZM34.4999 21.1059C34.4999 21.9307 33.8275 22.6021 33 22.6021H3.00002C2.17237 22.6021 1.50004 21.9307 1.50004 21.1059V3.15027C1.50004 2.32544 2.17244 1.654 3.00002 1.654H33C33.8276 1.654 34.4999 2.32544 34.4999 3.15027V21.1059Z" fill="#283593"/>
</svg>
