<svg width="27" height="34" viewBox="0 0 27 34" fill="none" xmlns="http://www.w3.org/2000/svg">
<path d="M24.114 0.911377H2.88599C1.29549 0.911377 0 2.21012 0 3.80462V30.9368C0 32.5313 1.29549 33.83 2.88599 33.83H24.114C25.7045 33.83 27 32.5313 27 30.9368V3.80462C27 2.21012 25.7045 0.911377 24.114 0.911377ZM25.8264 30.2874C25.8264 31.6955 24.7233 32.8399 23.3637 32.8399H3.64276C2.28314 32.8399 1.18005 31.6955 1.18005 30.2874V9.56539C1.18005 9.48823 1.23777 9.43037 1.30831 9.43037H25.6724C25.7558 9.43037 25.8264 9.50109 25.8264 9.5911V30.2874ZM25.8264 8.13162H1.17363V3.61174C1.17363 2.66661 1.93682 1.90151 2.87957 1.90151H24.114C25.0568 1.90151 25.82 2.66661 25.82 3.61174V8.13162H25.8264Z" fill="#283593"/>
<path d="M13.5319 12.5486C9.28629 12.5486 5.83594 16.0077 5.83594 20.264C5.83594 24.5202 9.28629 27.9793 13.5319 27.9793C17.7775 27.9793 21.2279 24.5202 21.2279 20.264C21.2279 16.0077 17.7775 12.5486 13.5319 12.5486ZM13.4998 26.9506C10.601 26.9506 8.15114 24.7774 7.15708 22.2249C8.46539 22.6364 9.90197 22.3021 10.9024 21.2798C12.3583 22.7714 14.7055 22.765 16.1614 21.2798C17.1618 22.3021 18.5984 22.6364 19.9067 22.2249C18.9127 24.7838 16.3986 26.9506 13.4998 26.9506ZM17.5659 20.5854C16.9181 19.531 15.4046 19.5374 14.7568 20.5854C14.1668 21.5434 12.9034 21.5434 12.307 20.5854C11.6592 19.531 10.1457 19.5374 9.49793 20.5854C8.68344 21.9099 6.78511 21.2605 6.78511 19.7818C6.78511 19.7753 6.78511 19.7689 6.78511 19.7625C7.33665 16.5285 10.1521 13.7124 13.5319 13.7124C16.9117 13.7124 19.7271 16.5349 20.2787 19.7625C20.2787 19.7689 20.2787 19.7753 20.2787 19.7818C20.2787 21.2605 18.3868 21.9163 17.5659 20.5854Z" fill="#283593"/>
<path d="M22.1898 6.49854C22.5758 6.49854 22.8888 6.18478 22.8888 5.79773C22.8888 5.41069 22.5758 5.09692 22.1898 5.09692C21.8037 5.09692 21.4907 5.41069 21.4907 5.79773C21.4907 6.18478 21.8037 6.49854 22.1898 6.49854Z" fill="#283593"/>
<path d="M18.3417 6.55641C18.7597 6.55641 19.0985 6.21674 19.0985 5.79774C19.0985 5.37873 18.7597 5.03906 18.3417 5.03906C17.9238 5.03906 17.585 5.37873 17.585 5.79774C17.585 6.21674 17.9238 6.55641 18.3417 6.55641Z" fill="#283593"/>
<path d="M14.4941 6.55641C14.912 6.55641 15.2508 6.21674 15.2508 5.79774C15.2508 5.37873 14.912 5.03906 14.4941 5.03906C14.0761 5.03906 13.7373 5.37873 13.7373 5.79774C13.7373 6.21674 14.0761 6.55641 14.4941 6.55641Z" fill="#283593"/>
<path d="M5.00883 6.52424H7.71524C8.2219 6.52424 8.62593 6.18991 8.62593 5.772C8.62593 5.35408 8.21548 5.02618 7.71524 5.02618H5.00883C4.50218 5.02618 4.09814 5.36051 4.09814 5.77843C4.09814 6.19634 4.50218 6.52424 5.00883 6.52424Z" fill="#283593"/>
<path d="M22.158 28.2943H20.234C19.7017 28.2943 19.272 28.6543 19.272 29.1044C19.272 29.548 19.7017 29.9145 20.234 29.9145H22.158C22.6903 29.9145 23.12 29.5544 23.12 29.1044C23.12 28.6543 22.6903 28.2943 22.158 28.2943Z" fill="#283593"/>
</svg>
